<svg xmlns="http://www.w3.org/2000/svg" viewBox="0 0 600 450" width="600" height="450">
  <defs>
    <linearGradient id="bgGrad" x1="0%" y1="0%" x2="0%" y2="100%">
      <stop offset="0%" stop-color="#f8fafc"/>
      <stop offset="100%" stop-color="#f1f5f9"/>
    </linearGradient>
  </defs>

  <!-- Neutral Background -->
  <rect width="600" height="450" fill="url(#bgGrad)"/>
  <rect x="0.5" y="0.5" width="599" height="449" fill="none" stroke="#e2e8f0"/>

  <!-- Icon Centerpiece -->
  <g transform="translate(300, 195)">
    <!-- Soft Background Pill -->
    <rect x="-44" y="-44" width="88" height="88" rx="22" fill="#e2e8f0"/>
    
    <!-- Camera / Product Visual Icon -->
    <path d="M -20 -8 L -13 -17 L 13 -17 L 20 -8 L 24 -8 C 28 -8 30 -5 30 -1 L 30 18 C 30 22 28 25 24 25 L -24 25 C -28 25 -30 22 -30 18 L -30 -1 C -30 -5 -28 -8 -24 -8 Z" fill="none" stroke="#64748b" stroke-width="2.5" stroke-linejoin="round"/>
    <circle cx="0" cy="8" r="10" fill="none" stroke="#64748b" stroke-width="2.5"/>
    <circle cx="17" cy="-1" r="2" fill="#64748b"/>
  </g>

  <!-- Clean, Simple, Generic Text -->
  <text x="300" y="275" text-anchor="middle" font-family="system-ui, -apple-system, sans-serif" font-weight="700" font-size="15" fill="#475569" letter-spacing="-0.2">
    Foto Produk Belum Tersedia
  </text>
  <text x="300" y="298" text-anchor="middle" font-family="system-ui, -apple-system, sans-serif" font-weight="500" font-size="12" fill="#94a3b8">
    Dokumentasi resmi segera hadir
  </text>
</svg>
